<svg width="180" height="180" viewBox="0 0 180 180" fill="none" xmlns="http://www.w3.org/2000/svg">
<circle cx="90" cy="90" r="90" fill="#00C9DB"/>
<path fill-rule="evenodd" clip-rule="evenodd" d="M42.9658 60.6576C42.9658 56.7992 44.4985 53.0989 47.2268 50.3706C49.9551 47.6423 53.6554 46.1096 57.5138 46.1096H122.98C126.838 46.1096 130.538 47.6423 133.266 50.3706C135.995 53.0989 137.527 56.7992 137.527 60.6576V118.849C137.527 122.708 135.995 126.408 133.266 129.136C130.538 131.865 126.838 133.397 122.98 133.397H57.5138C53.6554 133.397 49.9551 131.865 47.2268 129.136C44.4985 126.408 42.9658 122.708 42.9658 118.849V60.6576ZM62.2176 65.3614C62.8995 64.6803 63.8239 64.2978 64.7877 64.2978C65.7515 64.2978 66.6759 64.6803 67.3579 65.3614L78.2688 76.2724C78.9499 76.9543 79.3325 77.8787 79.3325 78.8425C79.3325 79.8063 78.9499 80.7307 78.2688 81.4126L67.3579 92.3236C66.6684 92.966 65.7565 93.3158 64.8143 93.2992C63.8721 93.2825 62.9731 92.9008 62.3067 92.2345C61.6404 91.5681 61.2587 90.6691 61.242 89.7269C61.2254 88.7847 61.5752 87.8728 62.2176 87.1833L70.5584 78.8425L62.2176 70.5017C61.5365 69.8197 61.154 68.8953 61.154 67.9315C61.154 66.9677 61.5365 66.0433 62.2176 65.3614ZM82.9727 86.1165C82.0081 86.1165 81.083 86.4997 80.4009 87.1817C79.7189 87.8638 79.3357 88.7889 79.3357 89.7535C79.3357 90.718 79.7189 91.6431 80.4009 92.3252C81.083 93.0073 82.0081 93.3904 82.9727 93.3904H97.5206C98.4852 93.3904 99.4103 93.0073 100.092 92.3252C100.774 91.6431 101.158 90.718 101.158 89.7535C101.158 88.7889 100.774 87.8638 100.092 87.1817C99.4103 86.4997 98.4852 86.1165 97.5206 86.1165H82.9727Z" fill="#F1F1F8"/>
</svg>
