<svg width="180" height="180" viewBox="0 0 180 180" fill="none" xmlns="http://www.w3.org/2000/svg">
<circle cx="90" cy="90" r="90" fill="#00C9DB"/>
<path fill-rule="evenodd" clip-rule="evenodd" d="M68.4343 60.6575H103C107.337 60.664 111.493 62.3911 114.557 65.4597C117.621 68.5283 119.342 72.6875 119.342 77.024V122.486C123.201 122.486 126.901 120.954 129.629 118.225C132.358 115.497 133.89 111.797 133.89 107.938V61.1813C133.89 53.8831 128.435 47.5499 120.972 46.9243C119.885 46.836 118.797 46.7551 117.708 46.6818C116.481 44.3168 114.627 42.3342 112.35 40.9506C110.073 39.567 107.459 38.8354 104.794 38.8356H97.5205C94.8559 38.8354 92.2423 39.567 89.9651 40.9506C87.6878 42.3342 85.8343 44.3168 84.6068 46.6818C83.5157 46.7546 82.4246 46.837 81.3432 46.9243C74.0595 47.5402 68.6865 53.5872 68.4343 60.6575ZM97.5205 46.1096C95.5913 46.1096 93.7412 46.876 92.377 48.2401C91.0129 49.6042 90.2465 51.4544 90.2465 53.3836H112.068C112.068 51.4544 111.302 49.6042 109.938 48.2401C108.574 46.876 106.724 46.1096 104.794 46.1096H97.5205Z" fill="#F1F1F8"/>
<path fill-rule="evenodd" clip-rule="evenodd" d="M46.6028 77.024C46.6028 72.0001 50.6762 67.9315 55.6952 67.9315H102.976C108 67.9315 112.069 72.0049 112.069 77.024V131.579C112.069 136.598 107.995 140.671 102.976 140.671H55.6952C53.2838 140.671 50.9711 139.713 49.2659 138.008C47.5607 136.303 46.6028 133.99 46.6028 131.579V77.024ZM61.1507 89.7534C61.1507 88.7888 61.5339 87.8638 62.216 87.1817C62.898 86.4996 63.8231 86.1164 64.7877 86.1164H64.8265C65.7911 86.1164 66.7162 86.4996 67.3982 87.1817C68.0803 87.8638 68.4635 88.7888 68.4635 89.7534V89.7922C68.4635 90.7568 68.0803 91.6819 67.3982 92.364C66.7162 93.046 65.7911 93.4292 64.8265 93.4292H64.7877C63.8231 93.4292 62.898 93.046 62.216 92.364C61.5339 91.6819 61.1507 90.7568 61.1507 89.7922V89.7534ZM72.0617 89.7534C72.0617 88.7888 72.4449 87.8638 73.1269 87.1817C73.809 86.4996 74.7341 86.1164 75.6987 86.1164H93.8836C94.8482 86.1164 95.7733 86.4996 96.4553 87.1817C97.1374 87.8638 97.5206 88.7888 97.5206 89.7534C97.5206 90.718 97.1374 91.6431 96.4553 92.3252C95.7733 93.0072 94.8482 93.3904 93.8836 93.3904H75.6987C74.7341 93.3904 73.809 93.0072 73.1269 92.3252C72.4449 91.6431 72.0617 90.718 72.0617 89.7534ZM61.1507 104.301C61.1507 103.337 61.5339 102.412 62.216 101.73C62.898 101.048 63.8231 100.664 64.7877 100.664H64.8265C65.7911 100.664 66.7162 101.048 67.3982 101.73C68.0803 102.412 68.4635 103.337 68.4635 104.301V104.34C68.4635 105.305 68.0803 106.23 67.3982 106.912C66.7162 107.594 65.7911 107.977 64.8265 107.977H64.7877C63.8231 107.977 62.898 107.594 62.216 106.912C61.5339 106.23 61.1507 105.305 61.1507 104.34V104.301ZM72.0617 104.301C72.0617 103.337 72.4449 102.412 73.1269 101.73C73.809 101.048 74.7341 100.664 75.6987 100.664H93.8836C94.8482 100.664 95.7733 101.048 96.4553 101.73C97.1374 102.412 97.5206 103.337 97.5206 104.301C97.5206 105.266 97.1374 106.191 96.4553 106.873C95.7733 107.555 94.8482 107.938 93.8836 107.938H75.6987C74.7341 107.938 73.809 107.555 73.1269 106.873C72.4449 106.191 72.0617 105.266 72.0617 104.301ZM61.1507 118.849C61.1507 117.885 61.5339 116.96 62.216 116.278C62.898 115.596 63.8231 115.212 64.7877 115.212H64.8265C65.7911 115.212 66.7162 115.596 67.3982 116.278C68.0803 116.96 68.4635 117.885 68.4635 118.849V118.888C68.4635 119.853 68.0803 120.778 67.3982 121.46C66.7162 122.142 65.7911 122.525 64.8265 122.525H64.7877C63.8231 122.525 62.898 122.142 62.216 121.46C61.5339 120.778 61.1507 119.853 61.1507 118.888V118.849ZM72.0617 118.849C72.0617 117.885 72.4449 116.96 73.1269 116.278C73.809 115.596 74.7341 115.212 75.6987 115.212H93.8836C94.8482 115.212 95.7733 115.596 96.4553 116.278C97.1374 116.96 97.5206 117.885 97.5206 118.849C97.5206 119.814 97.1374 120.739 96.4553 121.421C95.7733 122.103 94.8482 122.486 93.8836 122.486H75.6987C74.7341 122.486 73.809 122.103 73.1269 121.421C72.4449 120.739 72.0617 119.814 72.0617 118.849Z" fill="#F1F1F8"/>
</svg>
