<svg width="180" height="180" viewBox="0 0 180 180" fill="none" xmlns="http://www.w3.org/2000/svg">
<circle cx="90" cy="90" r="90" fill="#00C9DB"/>
<path d="M91.8333 39.5681C91.2769 39.2434 90.6442 39.0723 90 39.0723C89.3557 39.0723 88.723 39.2434 88.1666 39.5681L46.3486 63.9644L90 89.4277L133.651 63.9644L91.8333 39.5681ZM137.289 70.2599L93.6376 95.7232V139.375L135.485 114.969C136.034 114.648 136.49 114.189 136.806 113.638C137.123 113.086 137.289 112.462 137.289 111.826V70.2599ZM86.3624 139.375V95.7232L42.7109 70.2599V111.826C42.7107 112.462 42.8772 113.086 43.1938 113.638C43.5104 114.189 43.966 114.648 44.5152 114.969L86.3624 139.375Z" fill="#F1F1F8"/>
</svg>
